<?xml version="1.0" encoding="utf-8"?>
<svg xmlns="http://www.w3.org/2000/svg" style="margin: auto; background: rgb(241, 242, 243); display: block; shape-rendering: auto;" width="280" height="250" preserveAspectRatio="xMidYMid">
<style type="text/css">
  text {
    text-anchor: middle; font-size: 79px; opacity: 0;
  }
</style>
<g style="transform-origin:140px 125px;transform:scale(1)">
<g transform="translate(140,125)">
  <g transform="translate(0,0)"><g class="path" style="transform: scale(0.91); transform-origin: -126.635px 3.40406px; animation: 2.43902s linear -1.43089s infinite normal forwards running breath-1cddb124-a70b-4b0f-b2c2-3e7ef72d1c3c;"><path d="M1.90 0.47L3.24-7.82L19.91-31.60L2.45-30.41L4.27-40.37L17.77-39.50L30.97-40.45L29.63-32.23L12.88-8.37L32.07-9.48L30.34 0.47L16.91-0.40L1.90 0.47" fill="#14dfe3" stroke="none" stroke-width="none" transform="translate(-143.6199951171875,23.39406375461155)" style="fill: rgb(20, 223, 227);"></path></g><g class="path" style="transform: scale(0.91); transform-origin: -89.705px -6.98093px; animation: 2.43902s linear -1.25203s infinite normal forwards running breath-1cddb124-a70b-4b0f-b2c2-3e7ef72d1c3c;"><path d="M60.59-19.99L60.59-19.99Q60.59-25.44 59.64-27.25L59.64-27.25L59.64-27.25Q58.70-29.07 55.22-29.07L55.22-29.07L55.22-29.07Q51.74-29.07 47.32-26.31L47.32-26.31L47.32-20.54L48.19-1.98L37.52 0L38.47-19.20L37.52-59.17L48.35-61.15L47.32-40.69L47.32-31.44L47.32-31.44Q48.51-33.02 50.01-34.52L50.01-34.52L50.01-34.52Q51.51-36.02 54.67-37.92L54.67-37.92L54.67-37.92Q57.83-39.82 61.42-39.82L61.42-39.82L61.42-39.82Q65.02-39.82 67.47-37.01L67.47-37.01L67.47-37.01Q69.91-34.21 69.91-29.39L69.91-29.39L69.44-20.54L70.31-1.58L59.64 0.40L60.59-19.99" fill="#14dfe3" stroke="none" stroke-width="none" transform="translate(-143.6199951171875,23.39406375461155)" style="fill: rgb(83, 255, 0);"></path></g><g class="path" style="transform: scale(0.91); transform-origin: -50.165px 3.48406px; animation: 2.43902s linear -1.07317s infinite normal forwards running breath-1cddb124-a70b-4b0f-b2c2-3e7ef72d1c3c;"><path d="M76.63-16.51L76.63-16.51Q76.63-26.62 82.08-33.65L82.08-33.65L82.08-33.65Q87.53-40.69 94.84-40.69L94.84-40.69L94.84-40.69Q102.15-40.69 106.22-35.95L106.22-35.95L106.22-35.95Q110.28-31.21 110.28-23.38L110.28-23.38L110.28-23.38Q110.28-12.96 105.03-6.04L105.03-6.04L105.03-6.04Q99.78 0.87 91.80 0.87L91.80 0.87L91.80 0.87Q85.24 0.87 80.94-4.07L80.94-4.07L80.94-4.07Q76.63-9.01 76.63-16.51L76.63-16.51zM101.44-19.28L101.44-19.28L101.44-19.28Q101.44-30.73 93.62-30.73L93.62-30.73L93.62-30.73Q85.48-30.73 85.48-19.99L85.48-19.99L85.48-19.99Q85.48-14.38 87.77-11.22L87.77-11.22L87.77-11.22Q90.06-8.06 93.81-8.06L93.81-8.06L93.81-8.06Q97.56-8.06 99.50-10.94L99.50-10.94L99.50-10.94Q101.44-13.82 101.44-19.28" fill="#14dfe3" stroke="none" stroke-width="none" transform="translate(-143.6199951171875,23.39406375461155)" style="fill: rgb(197, 255, 0);"></path></g><g class="path" style="transform: scale(0.91); transform-origin: -21.13px -7.18093px; animation: 2.43902s linear -0.894309s infinite normal forwards running breath-1cddb124-a70b-4b0f-b2c2-3e7ef72d1c3c;"><path d="M117.08-59.17L127.90-61.15L126.87-20.54L127.74-1.98L117.08 0L118.03-19.20L117.08-59.17" fill="#14dfe3" stroke="none" stroke-width="none" transform="translate(-143.6199951171875,23.39406375461155)" style="fill: rgb(255, 0, 224);"></path></g><g class="path" style="transform: scale(0.91); transform-origin: 7.19001px 3.16907px; animation: 2.43902s linear -0.715447s infinite normal forwards running breath-1cddb124-a70b-4b0f-b2c2-3e7ef72d1c3c;"><path d="M144.97 0L144.97 0Q140.30 0 137.34-2.96L137.34-2.96L137.34-2.96Q134.38-5.92 134.38-10.94L134.38-10.94L134.38-10.94Q134.38-15.96 138.96-19.63L138.96-19.63L138.96-19.63Q143.54-23.30 150.10-23.30L150.10-23.30L155.47-23.30L155.47-24.65L155.47-24.65Q155.47-28.52 153.89-29.94L153.89-29.94L153.89-29.94Q152.31-31.36 147.97-31.36L147.97-31.36L147.97-31.36Q146.15-31.36 143.66-30.61L143.66-30.61L143.66-30.61Q141.17-29.86 138.09-28.28L138.09-28.28L135.80-34.52L135.80-34.52Q139.20-36.89 144.06-38.79L144.06-38.79L144.06-38.79Q148.91-40.69 152.07-40.69L152.07-40.69L152.07-40.69Q164.48-40.69 164.48-28.68L164.48-28.68L164.48-13.19L164.48-13.19Q164.48-8.77 167.24-3.32L167.24-3.32L158.87 0.24L158.87 0.24Q156.89-3.56 155.95-6.56L155.95-6.56L155.95-6.56Q151.60 0 144.97 0L144.97 0zM148.28-8.06L148.28-8.06L148.28-8.06Q151.44-8.06 155.47-11.30L155.47-11.30L155.47-16.59L155.47-16.59Q151.28-17.54 148.68-17.54L148.68-17.54L148.68-17.54Q143.70-17.54 143.70-13.11L143.70-13.11L143.70-13.11Q143.70-10.82 144.97-9.44L144.97-9.44L144.97-9.44Q146.23-8.06 148.28-8.06" fill="#14dfe3" stroke="none" stroke-width="none" transform="translate(-143.6199951171875,23.39406375461155)" style="fill: rgb(255, 0, 53);"></path></g><g class="path" style="transform: scale(0.91); transform-origin: 34.01px 17.7841px; animation: 2.43902s linear -0.536585s infinite normal forwards running breath-1cddb124-a70b-4b0f-b2c2-3e7ef72d1c3c;"><path d="M171.90-5.29L171.90-5.29L171.90-5.29Q171.90-7.82 173.76-9.76L173.76-9.76L173.76-9.76Q175.62-11.69 178.22-11.69L178.22-11.69L178.22-11.69Q183.36-11.69 183.36-6.48L183.36-6.48L183.36-6.48Q183.36-3.48 181.50-1.50L181.50-1.50L181.50-1.50Q179.65 0.47 177.16 0.47L177.16 0.47L177.16 0.47Q174.67 0.47 173.29-1.15L173.29-1.15L173.29-1.15Q171.90-2.77 171.90-5.29" fill="#14dfe3" stroke="none" stroke-width="none" transform="translate(-143.6199951171875,23.39406375461155)" style="fill: rgb(20, 223, 227);"></path></g><g class="path" style="transform: scale(0.91); transform-origin: 62.57px 3.48907px; animation: 2.43902s linear -0.357724s infinite normal forwards running breath-1cddb124-a70b-4b0f-b2c2-3e7ef72d1c3c;"><path d="M213.22-19.99L213.22-19.99Q213.22-25.44 212.27-27.25L212.27-27.25L212.27-27.25Q211.32-29.07 207.85-29.07L207.85-29.07L207.85-29.07Q204.37-29.07 199.95-26.31L199.95-26.31L199.95-20.54L200.82-1.98L190.23 0L191.18-19.20L191.18-19.20Q190.86-29.78 189.44-38.16L189.44-38.16L199.00-40.21L199.00-40.21Q199.55-35.63 199.79-31.28L199.79-31.28L199.79-31.28Q200.98-32.86 202.48-34.40L202.48-34.40L202.48-34.40Q203.98-35.95 207.22-37.88L207.22-37.88L207.22-37.88Q210.46-39.82 214.05-39.82L214.05-39.82L214.05-39.82Q217.64-39.82 220.09-37.01L220.09-37.01L220.09-37.01Q222.54-34.21 222.54-29.39L222.54-29.39L222.07-20.54L222.94-1.58L212.27 0.40L213.22-19.99" fill="#14dfe3" stroke="none" stroke-width="none" transform="translate(-143.6199951171875,23.39406375461155)" style="fill: rgb(83, 255, 0);"></path></g><g class="path" style="transform: scale(0.91); transform-origin: 100.925px 3.48406px; animation: 2.43902s linear -0.178862s infinite normal forwards running breath-1cddb124-a70b-4b0f-b2c2-3e7ef72d1c3c;"><path d="M245.85-8.06L245.85-8.06L245.85-8.06Q248.14-8.06 250.67-9.24L250.67-9.24L250.67-9.24Q253.19-10.43 254.62-11.61L254.62-11.61L256.04-12.80L259.67-8.37L259.67-8.37Q258.88-7.03 257.22-5.29L257.22-5.29L257.22-5.29Q255.56-3.56 253.87-2.33L253.87-2.33L253.87-2.33Q252.17-1.11 249.36-0.12L249.36-0.12L249.36-0.12Q246.56 0.87 243.56 0.87L243.56 0.87L243.56 0.87Q237.16 0.87 233.13-3.99L233.13-3.99L233.13-3.99Q229.10-8.85 229.10-16.51L229.10-16.51L229.10-16.51Q229.10-26.15 234.71-33.42L234.71-33.42L234.71-33.42Q240.32-40.69 247.82-40.69L247.82-40.69L247.82-40.69Q253.59-40.69 256.79-37.45L256.79-37.45L256.79-37.45Q259.99-34.21 259.99-28.36L259.99-28.36L259.99-28.36Q259.99-24.89 258.80-20.46L258.80-20.46L257.22-18.80L237.47-16.98L237.47-16.98Q238.82-8.06 245.85-8.06zM245.85-32.55L245.85-32.55L245.85-32.55Q242.37-32.55 240.00-29.74L240.00-29.74L240.00-29.74Q237.63-26.94 237.24-22.59L237.24-22.59L250.67-24.25L250.67-24.25Q250.90-26.07 250.90-27.25L250.90-27.25L250.90-27.25Q250.90-32.55 245.85-32.55" fill="#14dfe3" stroke="none" stroke-width="none" transform="translate(-143.6199951171875,23.39406375461155)" style="fill: rgb(197, 255, 0);"></path></g><g class="path" style="transform: scale(0.91); transform-origin: 133.195px -1.05594px; animation: 2.43902s linear 0s infinite normal forwards running breath-1cddb124-a70b-4b0f-b2c2-3e7ef72d1c3c;"><path d="M265.36-38.24L269.94-38.24L269.94-46.85L280.61-48.90L279.58-38.24L289.14-38.24L288.27-31.76L279.26-31.76L278.87-15.25L278.87-15.25Q278.87-11.53 279.58-10.31L279.58-10.31L279.58-10.31Q280.29-9.09 282.19-9.09L282.19-9.09L282.19-9.09Q284.08-9.09 287.24-9.95L287.24-9.95L287.72-4.34L287.72-4.34Q282.50 0 278.55 0L278.55 0L278.55 0Q274.60 0 272.08-2.88L272.08-2.88L272.08-2.88Q269.55-5.77 269.55-10.43L269.55-10.43L270.02-19.28L269.94-31.76L264.49-31.76L265.36-38.24" fill="#14dfe3" stroke="none" stroke-width="none" transform="translate(-143.6199951171875,23.39406375461155)" style="fill: rgb(255, 0, 224);"></path></g></g>
</g>
</g>
<style id="breath-1cddb124-a70b-4b0f-b2c2-3e7ef72d1c3c" data-anikit="">@keyframes breath-1cddb124-a70b-4b0f-b2c2-3e7ef72d1c3c
{
  0% {
    animation-timing-function: cubic-bezier(0.9647,0.2413,-0.0705,0.7911);
    transform: scale(0.9099999999999999);
  }
  51% {
    animation-timing-function: cubic-bezier(0.9226,0.2631,-0.0308,0.7628);
    transform: scale(1.02994);
  }
  100% {
    transform: scale(0.9099999999999999);
  }
}</style></svg>